<svg xmlns="http://www.w3.org/2000/svg" xmlns:xlink="http://www.w3.org/1999/xlink" width="1400" height="759.85"><rect width="1400" height="759.85" rx="0" ry="0" class="a"/><svg height="759.85" viewBox="0 0 140 75.985" width="1400" xmlns="http://www.w3.org/2000/svg" xmlns:xlink="http://www.w3.org/1999/xlink"><style>@keyframes j{0%{transform:translateX(0)}.03%{transform:translateX(-420px)}8.53%{transform:translateX(-560px)}9.24%{transform:translateX(-700px)}9.8%{transform:translateX(-840px)}10.38%{transform:translateX(-980px)}10.73%{transform:translateX(-1120px)}11.09%{transform:translateX(-1260px)}11.63%{transform:translateX(-1400px)}11.95%{transform:translateX(-1540px)}12.91%{transform:translateX(-1680px)}13.34%{transform:translateX(-1820px)}14.52%{transform:translateX(-1960px)}15.14%{transform:translateX(-2100px)}15.55%{transform:translateX(-2240px)}15.96%{transform:translateX(-2380px)}16.26%{transform:translateX(-2520px)}17.13%{transform:translateX(-2660px)}18.51%{transform:translateX(-2800px)}18.65%{transform:translateX(-2940px)}24.63%{transform:translateX(-3080px)}24.94%{transform:translateX(-3220px)}25.46%{transform:translateX(-3360px)}25.8%{transform:translateX(-3500px)}26.18%{transform:translateX(-3640px)}26.58%{transform:translateX(-3780px)}27.12%{transform:translateX(-3920px)}27.53%{transform:translateX(-4060px)}28.25%{transform:translateX(-4200px)}28.94%{transform:translateX(-4340px)}29.24%{transform:translateX(-4480px)}29.73%{transform:translateX(-4620px)}30.04%{transform:translateX(-4760px)}32.7%{transform:translateX(-4900px)}33.78%{transform:translateX(-5040px)}35.06%{transform:translateX(-5180px)}35.93%{transform:translateX(-5320px)}36.94%{transform:translateX(-5460px)}37.26%{transform:translateX(-5600px)}38.25%{transform:translateX(-5740px)}39.05%{transform:translateX(-5880px)}40.43%{transform:translateX(-6020px)}40.85%{transform:translateX(-6160px)}41.37%{transform:translateX(-6300px)}41.99%{transform:translateX(-6440px)}42.27%{transform:translateX(-6580px)}42.89%{transform:translateX(-6720px)}43.36%{transform:translateX(-6860px)}43.72%{transform:translateX(-7000px)}44.37%{transform:translateX(-7140px)}45.36%{transform:translateX(-7280px)}46.07%{transform:translateX(-7420px)}46.99%{transform:translateX(-7560px)}47.74%{transform:translateX(-7700px)}48.27%{transform:translateX(-7840px)}49.12%{transform:translateX(-7980px)}49.8%{transform:translateX(-8120px)}50.47%{transform:translateX(-8260px)}53.82%{transform:translateX(-8400px)}54.1%{transform:translateX(-8540px)}55.2%{transform:translateX(-8680px)}55.7%{transform:translateX(-8820px)}56.25%{transform:translateX(-8960px)}56.69%{transform:translateX(-9100px)}57.16%{transform:translateX(-9240px)}57.52%{transform:translateX(-9380px)}57.9%{transform:translateX(-9520px)}59.66%{transform:translateX(-9660px)}60.51%{transform:translateX(-9800px)}62.74%{transform:translateX(-9940px)}63.42%{transform:translateX(-10080px)}71.94%{transform:translateX(-10220px)}74.37%{transform:translateX(-10360px)}74.81%{transform:translateX(-10500px)}75.3%{transform:translateX(-10640px)}75.64%{transform:translateX(-10780px)}75.88%{transform:translateX(-10920px)}76.29%{transform:translateX(-11060px)}76.55%{transform:translateX(-11200px)}77.23%{transform:translateX(-11340px)}77.39%{transform:translateX(-11480px)}78%{transform:translateX(-11620px)}78.46%{transform:translateX(-11760px)}78.9%{transform:translateX(-11900px)}79.27%{transform:translateX(-12040px)}79.64%{transform:translateX(-12180px)}80.68%{transform:translateX(-12320px)}80.77%{transform:translateX(-12460px)}80.96%{transform:translateX(-12600px)}99.19%{transform:translateX(-12740px)}99.23%{transform:translateX(-13020px)}99.96%{transform:translateX(-13160px)}to{transform:translateX(-13440px)}}.a{fill:#282d35}.c{fill:#b9c0cb}.c,.d{white-space:pre}.d,.e{fill:#a8cc8c}.f,.g{white-space:pre}.g{fill:#a8cc8c;text-decoration:underline}</style><g font-family="Monaco,Consolas,Menlo,'Bitstream Vera Sans Mono','Powerline Symbols',monospace" font-size="1.67"><defs><symbol id="15"><text y="1.67" class="c">david@laptop:~/code/hishtory$</text><text x="30.06" y="1.67" class="c">find</text><text x="35.07" y="1.67" class="c">.</text><text x="37.074" y="1.67" class="c">-iname</text><text x="44.088" y="1.67" class="c">&apos;*.go&apos;</text><text x="51.102" y="1.67" class="c">|</text><text x="53.106" y="1.67" class="c">xargs</text><text x="59.118" y="1.67" class="c">-I</text><text x="62.124" y="1.67" class="c">{}</text></symbol><symbol id="1"><text y="1.67" class="c">david@laptop:~$</text></symbol><symbol id="3"><text y="1.67" class="c">david@server:~$</text></symbol><symbol id="4"><path class="e" d="M0 0h140v2.171H0z"/><text y="1.67" class="f">[terminal-0:bash* &quot;laptop&quot; 21:39 12-Jan-22</text></symbol><symbol id="5"><text y="1.67" class="c">david@laptop:~$</text><text x="16.032" y="1.67" class="c">cd</text></symbol><symbol id="6"><text y="1.67" class="c">david@laptop:~$</text><text x="16.032" y="1.67" class="c">cd</text><text x="19.038" y="1.67" class="c">code/hishtory</text></symbol><symbol id="7"><text y="1.67" class="c">david@laptop:~/code/hishtory$</text></symbol><symbol id="8"><text y="1.67" class="c">david@laptop:~/code/hishtory$</text><text x="30.06" y="1.67" class="c">find</text></symbol><symbol id="9"><text y="1.67" class="c">david@laptop:~/code/hishtory$</text><text x="30.06" y="1.67" class="c">find</text><text x="35.07" y="1.67" class="c">.</text></symbol><symbol id="10"><text y="1.67" class="c">david@laptop:~/code/hishtory$</text><text x="30.06" y="1.67" class="c">find</text><text x="35.07" y="1.67" class="c">.</text><text x="37.074" y="1.67" class="c">-iname</text></symbol><symbol id="11"><text y="1.67" class="c">david@laptop:~/code/hishtory$</text><text x="30.06" y="1.67" class="c">find</text><text x="35.07" y="1.67" class="c">.</text><text x="37.074" y="1.67" class="c">-iname</text><text x="44.088" y="1.67" class="c">&apos;*.go&apos;</text></symbol><symbol id="12"><text y="1.67" class="c">david@laptop:~/code/hishtory$</text><text x="30.06" y="1.67" class="c">find</text><text x="35.07" y="1.67" class="c">.</text><text x="37.074" y="1.67" class="c">-iname</text><text x="44.088" y="1.67" class="c">&apos;*.go&apos;</text><text x="51.102" y="1.67" class="c">|</text></symbol><symbol id="13"><text y="1.67" class="c">david@laptop:~/code/hishtory$</text><text x="30.06" y="1.67" class="c">find</text><text x="35.07" y="1.67" class="c">.</text><text x="37.074" y="1.67" class="c">-iname</text><text x="44.088" y="1.67" class="c">&apos;*.go&apos;</text><text x="51.102" y="1.67" class="c">|</text><text x="53.106" y="1.67" class="c">xargs</text></symbol><symbol id="14"><text y="1.67" class="c">david@laptop:~/code/hishtory$</text><text x="30.06" y="1.67" class="c">find</text><text x="35.07" y="1.67" class="c">.</text><text x="37.074" y="1.67" class="c">-iname</text><text x="44.088" y="1.67" class="c">&apos;*.go&apos;</text><text x="51.102" y="1.67" class="c">|</text><text x="53.106" y="1.67" class="c">xargs</text><text x="59.118" y="1.67" class="c">-I</text></symbol><symbol id="2"><text y="1.67" class="d">───────────────────────────────────────────────────────────────────────</text><text x="71.142" y="1.67" class="c">─────────────────────────────────────────────────────────────────────</text></symbol><symbol id="16"><text y="1.67" class="c">david@laptop:~/code/hishtory$</text><text x="30.06" y="1.67" class="c">find</text><text x="35.07" y="1.67" class="c">.</text><text x="37.074" y="1.67" class="c">-iname</text><text x="44.088" y="1.67" class="c">&apos;*.go&apos;</text><text x="51.102" y="1.67" class="c">|</text><text x="53.106" y="1.67" class="c">xargs</text><text x="59.118" y="1.67" class="c">-I</text><text x="62.124" y="1.67" class="c">{}</text><text x="65.13" y="1.67" class="c">--</text></symbol><symbol id="17"><text y="1.67" class="c">david@laptop:~/code/hishtory$</text><text x="30.06" y="1.67" class="c">find</text><text x="35.07" y="1.67" class="c">.</text><text x="37.074" y="1.67" class="c">-iname</text><text x="44.088" y="1.67" class="c">&apos;*.go&apos;</text><text x="51.102" y="1.67" class="c">|</text><text x="53.106" y="1.67" class="c">xargs</text><text x="59.118" y="1.67" class="c">-I</text><text x="62.124" y="1.67" class="c">{}</text><text x="65.13" y="1.67" class="c">--</text><text x="68.136" y="1.67" class="c">gofmt</text></symbol><symbol id="18"><text y="1.67" class="c">david@laptop:~/code/hishtory$</text><text x="30.06" y="1.67" class="c">find</text><text x="35.07" y="1.67" class="c">.</text><text x="37.074" y="1.67" class="c">-iname</text><text x="44.088" y="1.67" class="c">&apos;*.go&apos;</text><text x="51.102" y="1.67" class="c">|</text><text x="53.106" y="1.67" class="c">xargs</text><text x="59.118" y="1.67" class="c">-I</text><text x="62.124" y="1.67" class="c">{}</text><text x="65.13" y="1.67" class="c">--</text><text x="68.136" y="1.67" class="c">gofmt</text><text x="74.148" y="1.67" class="c">-w</text></symbol><symbol id="19"><text y="1.67" class="c">david@laptop:~/code/hishtory$</text><text x="30.06" y="1.67" class="c">find</text><text x="35.07" y="1.67" class="c">.</text><text x="37.074" y="1.67" class="c">-iname</text><text x="44.088" y="1.67" class="c">&apos;*.go&apos;</text><text x="51.102" y="1.67" class="c">|</text><text x="53.106" y="1.67" class="c">xargs</text><text x="59.118" y="1.67" class="c">-I</text><text x="62.124" y="1.67" class="c">{}</text><text x="65.13" y="1.67" class="c">--</text><text x="68.136" y="1.67" class="c">gofmt</text><text x="74.148" y="1.67" class="c">-w</text><text x="77.154" y="1.67" class="c">{}</text></symbol><symbol id="20"><text y="1.67" class="c">───────────────────────────────────────────────────────────────────────</text><text x="71.142" y="1.67" class="d">─────────────────────────────────────────────────────────────────────</text></symbol><symbol id="21"><path class="e" d="M0 0h140v2.171H0z"/><text y="1.67" class="f">[terminal-0:bash* &quot;server&quot; 21:39 12-Jan-22</text></symbol><symbol id="22"><text y="1.67" class="c">david@server:~$</text><text x="16.032" y="1.67" class="c">hishtory</text></symbol><symbol id="23"><text y="1.67" class="c">david@server:~$</text><text x="16.032" y="1.67" class="c">hishtory</text><text x="25.05" y="1.67" class="c">query</text></symbol><symbol id="24"><text y="1.67" class="g">CWD</text><text x="17.034" y="1.67" class="g">Timestamp</text><text x="45.09" y="1.67" class="g">Runtime</text><text x="54.108" y="1.67" class="g">Exit</text><text x="59.118" y="1.67" class="g">Code</text><text x="65.13" y="1.67" class="g">Command</text></symbol><symbol id="25"><text y="1.67" class="c">~/code/hishtory</text><text x="17.034" y="1.67" class="c">Jan</text><text x="21.042" y="1.67" class="c">12</text><text x="24.048" y="1.67" class="c">2022</text><text x="29.058" y="1.67" class="c">21:39:41</text><text x="38.076" y="1.67" class="c">-0800</text><text x="45.09" y="1.67" class="c">133ms</text><text x="54.108" y="1.67" class="c">0</text><text x="65.13" y="1.67" class="c">find</text><text x="70.14" y="1.67" class="c">.</text><text x="72.144" y="1.67" class="c">-iname</text><text x="79.158" y="1.67" class="c">&apos;*.go&apos;</text><text x="86.172" y="1.67" class="c">|</text><text x="88.176" y="1.67" class="c">xargs</text><text x="94.188" y="1.67" class="c">-I</text><text x="97.194" y="1.67" class="c">{}</text><text x="100.2" y="1.67" class="c">--</text><text x="103.206" y="1.67" class="c">gofmt</text><text x="109.218" y="1.67" class="c">-w</text><text x="112.224" y="1.67" class="c">{}</text></symbol><symbol id="26"><text y="1.67" class="c">~/code/hishtory</text><text x="17.034" y="1.67" class="c">Jan</text><text x="21.042" y="1.67" class="c">12</text><text x="24.048" y="1.67" class="c">2022</text><text x="29.058" y="1.67" class="c">21:39:30</text><text x="38.076" y="1.67" class="c">-0800</text><text x="45.09" y="1.67" class="c">16ms</text><text x="54.108" y="1.67" class="c">0</text><text x="65.13" y="1.67" class="c">cd</text><text x="68.136" y="1.67" class="c">code/hishtory</text></symbol><symbol id="27"><text y="1.67" class="c">~</text><text x="17.034" y="1.67" class="c">Jan</text><text x="21.042" y="1.67" class="c">12</text><text x="24.048" y="1.67" class="c">2022</text><text x="29.058" y="1.67" class="c">21:39:19</text><text x="38.076" y="1.67" class="c">-0800</text><text x="45.09" y="1.67" class="c">26ms</text><text x="54.108" y="1.67" class="c">0</text><text x="65.13" y="1.67" class="c">hishtory</text><text x="74.148" y="1.67" class="c">init</text></symbol><symbol id="a"><path fill="transparent" d="M0 0h140v35H0z"/></symbol><symbol id="b"><path fill="#6f7683" d="M0 0h1.102v2.171H0z"/></symbol></defs><path class="a" d="M0 0h140v75.985H0z"/><g style="animation-duration:15.412558s;animation-iteration-count:infinite;animation-name:j;animation-timing-function:steps(1,end)"><svg width="13580"><svg><use xlink:href="#a"/><use xlink:href="#b" x="-.004"/></svg><svg x="140"><use xlink:href="#a"/><use xlink:href="#b" x="15.996"/></svg><svg x="280"><use xlink:href="#a"/><use xlink:href="#b" x="15.996"/><use xlink:href="#1"/><use xlink:href="#2" y="36.907"/><use xlink:href="#3" y="39.078"/><use xlink:href="#4" y="73.814"/></svg><svg x="420"><use xlink:href="#a"/><use xlink:href="#b" x="15.996"/><use xlink:href="#1"/><use xlink:href="#2" y="36.907"/><use xlink:href="#3" y="39.078"/><use xlink:href="#4" y="73.814"/></svg><svg x="560"><use xlink:href="#a"/><use xlink:href="#b" x="16.996"/><text y="1.67" class="c">david@laptop:~$</text><text x="16.032" y="1.67" class="c">c</text><use xlink:href="#2" y="36.907"/><use xlink:href="#3" y="39.078"/><use xlink:href="#4" y="73.814"/></svg><svg x="700"><use xlink:href="#a"/><use xlink:href="#b" x="17.996"/><use xlink:href="#5"/><use xlink:href="#2" y="36.907"/><use xlink:href="#3" y="39.078"/><use xlink:href="#4" y="73.814"/></svg><svg x="840"><use xlink:href="#a"/><use xlink:href="#b" x="18.996"/><use xlink:href="#5"/><use xlink:href="#2" y="36.907"/><use xlink:href="#3" y="39.078"/><use xlink:href="#4" y="73.814"/></svg><svg x="980"><use xlink:href="#a"/><use xlink:href="#b" x="19.996"/><text y="1.67" class="c">david@laptop:~$</text><text x="16.032" y="1.67" class="c">cd</text><text x="19.038" y="1.67" class="c">c</text><use xlink:href="#2" y="36.907"/><use xlink:href="#3" y="39.078"/><use xlink:href="#4" y="73.814"/></svg><svg x="1120"><use xlink:href="#a"/><use xlink:href="#b" x="20.996"/><text y="1.67" class="c">david@laptop:~$</text><text x="16.032" y="1.67" class="c">cd</text><text x="19.038" y="1.67" class="c">co</text><use xlink:href="#2" y="36.907"/><use xlink:href="#3" y="39.078"/><use xlink:href="#4" y="73.814"/></svg><svg x="1260"><use xlink:href="#a"/><use xlink:href="#b" x="21.996"/><text y="1.67" class="c">david@laptop:~$</text><text x="16.032" y="1.67" class="c">cd</text><text x="19.038" y="1.67" class="c">cod</text><use xlink:href="#2" y="36.907"/><use xlink:href="#3" y="39.078"/><use xlink:href="#4" y="73.814"/></svg><svg x="1400"><use xlink:href="#a"/><use xlink:href="#b" x="22.996"/><text y="1.67" class="c">david@laptop:~$</text><text x="16.032" y="1.67" class="c">cd</text><text x="19.038" y="1.67" class="c">code</text><use xlink:href="#2" y="36.907"/><use xlink:href="#3" y="39.078"/><use xlink:href="#4" y="73.814"/></svg><svg x="1540"><use xlink:href="#a"/><use xlink:href="#b" x="23.996"/><text y="1.67" class="c">david@laptop:~$</text><text x="16.032" y="1.67" class="c">cd</text><text x="19.038" y="1.67" class="c">code/</text><use xlink:href="#2" y="36.907"/><use xlink:href="#3" y="39.078"/><use xlink:href="#4" y="73.814"/></svg><svg x="1680"><use xlink:href="#a"/><use xlink:href="#b" x="24.996"/><text y="1.67" class="c">david@laptop:~$</text><text x="16.032" y="1.67" class="c">cd</text><text x="19.038" y="1.67" class="c">code/h</text><use xlink:href="#2" y="36.907"/><use xlink:href="#3" y="39.078"/><use xlink:href="#4" y="73.814"/></svg><svg x="1820"><use xlink:href="#a"/><use xlink:href="#b" x="25.996"/><text y="1.67" class="c">david@laptop:~$</text><text x="16.032" y="1.67" class="c">cd</text><text x="19.038" y="1.67" class="c">code/hi</text><use xlink:href="#2" y="36.907"/><use xlink:href="#3" y="39.078"/><use xlink:href="#4" y="73.814"/></svg><svg x="1960"><use xlink:href="#a"/><use xlink:href="#b" x="26.996"/><text y="1.67" class="c">david@laptop:~$</text><text x="16.032" y="1.67" class="c">cd</text><text x="19.038" y="1.67" class="c">code/his</text><use xlink:href="#2" y="36.907"/><use xlink:href="#3" y="39.078"/><use xlink:href="#4" y="73.814"/></svg><svg x="2100"><use xlink:href="#a"/><use xlink:href="#b" x="27.996"/><text y="1.67" class="c">david@laptop:~$</text><text x="16.032" y="1.67" class="c">cd</text><text x="19.038" y="1.67" class="c">code/hish</text><use xlink:href="#2" y="36.907"/><use xlink:href="#3" y="39.078"/><use xlink:href="#4" y="73.814"/></svg><svg x="2240"><use xlink:href="#a"/><use xlink:href="#b" x="28.996"/><text y="1.67" class="c">david@laptop:~$</text><text x="16.032" y="1.67" class="c">cd</text><text x="19.038" y="1.67" class="c">code/hisht</text><use xlink:href="#2" y="36.907"/><use xlink:href="#3" y="39.078"/><use xlink:href="#4" y="73.814"/></svg><svg x="2380"><use xlink:href="#a"/><use xlink:href="#b" x="29.996"/><text y="1.67" class="c">david@laptop:~$</text><text x="16.032" y="1.67" class="c">cd</text><text x="19.038" y="1.67" class="c">code/hishto</text><use xlink:href="#2" y="36.907"/><use xlink:href="#3" y="39.078"/><use xlink:href="#4" y="73.814"/></svg><svg x="2520"><use xlink:href="#a"/><use xlink:href="#b" x="30.996"/><text y="1.67" class="c">david@laptop:~$</text><text x="16.032" y="1.67" class="c">cd</text><text x="19.038" y="1.67" class="c">code/hishtor</text><use xlink:href="#2" y="36.907"/><use xlink:href="#3" y="39.078"/><use xlink:href="#4" y="73.814"/></svg><svg x="2660"><use xlink:href="#a"/><use xlink:href="#b" x="31.996"/><use xlink:href="#6"/><use xlink:href="#2" y="36.907"/><use xlink:href="#3" y="39.078"/><use xlink:href="#4" y="73.814"/></svg><svg x="2800"><use xlink:href="#a"/><use xlink:href="#b" x="-.004" y="2.146"/><use xlink:href="#6"/><use xlink:href="#2" y="36.907"/><use xlink:href="#3" y="39.078"/><use xlink:href="#4" y="73.814"/></svg><svg x="2940"><use xlink:href="#a"/><use xlink:href="#b" x="29.996" y="2.146"/><use xlink:href="#6"/><use xlink:href="#7" y="2.171"/><use xlink:href="#2" y="36.907"/><use xlink:href="#3" y="39.078"/><use xlink:href="#4" y="73.814"/></svg><svg x="3080"><use xlink:href="#a"/><use xlink:href="#b" x="30.996" y="2.146"/><use xlink:href="#6"/><text y="3.841" class="c">david@laptop:~/code/hishtory$</text><text x="30.06" y="3.841" class="c">f</text><use xlink:href="#2" y="36.907"/><use xlink:href="#3" y="39.078"/><use xlink:href="#4" y="73.814"/></svg><svg x="3220"><use xlink:href="#a"/><use xlink:href="#b" x="31.996" y="2.146"/><use xlink:href="#6"/><text y="3.841" class="c">david@laptop:~/code/hishtory$</text><text x="30.06" y="3.841" class="c">fi</text><use xlink:href="#2" y="36.907"/><use xlink:href="#3" y="39.078"/><use xlink:href="#4" y="73.814"/></svg><svg x="3360"><use xlink:href="#a"/><use xlink:href="#b" x="32.996" y="2.146"/><use xlink:href="#6"/><text y="3.841" class="c">david@laptop:~/code/hishtory$</text><text x="30.06" y="3.841" class="c">fin</text><use xlink:href="#2" y="36.907"/><use xlink:href="#3" y="39.078"/><use xlink:href="#4" y="73.814"/></svg><svg x="3500"><use xlink:href="#a"/><use xlink:href="#b" x="33.996" y="2.146"/><use xlink:href="#6"/><use xlink:href="#8" y="2.171"/><use xlink:href="#2" y="36.907"/><use xlink:href="#3" y="39.078"/><use xlink:href="#4" y="73.814"/></svg><svg x="3640"><use xlink:href="#a"/><use xlink:href="#b" x="34.996" y="2.146"/><use xlink:href="#6"/><use xlink:href="#8" y="2.171"/><use xlink:href="#2" y="36.907"/><use xlink:href="#3" y="39.078"/><use xlink:href="#4" y="73.814"/></svg><svg x="3780"><use xlink:href="#a"/><use xlink:href="#b" x="35.996" y="2.146"/><use xlink:href="#6"/><use xlink:href="#9" y="2.171"/><use xlink:href="#2" y="36.907"/><use xlink:href="#3" y="39.078"/><use xlink:href="#4" y="73.814"/></svg><svg x="3920"><use xlink:href="#a"/><use xlink:href="#b" x="36.996" y="2.146"/><use xlink:href="#6"/><use xlink:href="#9" y="2.171"/><use xlink:href="#2" y="36.907"/><use xlink:href="#3" y="39.078"/><use xlink:href="#4" y="73.814"/></svg><svg x="4060"><use xlink:href="#a"/><use xlink:href="#b" x="37.996" y="2.146"/><use xlink:href="#6"/><text y="3.841" class="c">david@laptop:~/code/hishtory$</text><text x="30.06" y="3.841" class="c">find</text><text x="35.07" y="3.841" class="c">.</text><text x="37.074" y="3.841" class="c">-</text><use xlink:href="#2" y="36.907"/><use xlink:href="#3" y="39.078"/><use xlink:href="#4" y="73.814"/></svg><svg x="4200"><use xlink:href="#a"/><use xlink:href="#b" x="38.996" y="2.146"/><use xlink:href="#6"/><text y="3.841" class="c">david@laptop:~/code/hishtory$</text><text x="30.06" y="3.841" class="c">find</text><text x="35.07" y="3.841" class="c">.</text><text x="37.074" y="3.841" class="c">-i</text><use xlink:href="#2" y="36.907"/><use xlink:href="#3" y="39.078"/><use xlink:href="#4" y="73.814"/></svg><svg x="4340"><use xlink:href="#a"/><use xlink:href="#b" x="39.996" y="2.146"/><use xlink:href="#6"/><text y="3.841" class="c">david@laptop:~/code/hishtory$</text><text x="30.06" y="3.841" class="c">find</text><text x="35.07" y="3.841" class="c">.</text><text x="37.074" y="3.841" class="c">-in</text><use xlink:href="#2" y="36.907"/><use xlink:href="#3" y="39.078"/><use xlink:href="#4" y="73.814"/></svg><svg x="4480"><use xlink:href="#a"/><use xlink:href="#b" x="40.996" y="2.146"/><use xlink:href="#6"/><text y="3.841" class="c">david@laptop:~/code/hishtory$</text><text x="30.06" y="3.841" class="c">find</text><text x="35.07" y="3.841" class="c">.</text><text x="37.074" y="3.841" class="c">-ina</text><use xlink:href="#2" y="36.907"/><use xlink:href="#3" y="39.078"/><use xlink:href="#4" y="73.814"/></svg><svg x="4620"><use xlink:href="#a"/><use xlink:href="#b" x="41.996" y="2.146"/><use xlink:href="#6"/><text y="3.841" class="c">david@laptop:~/code/hishtory$</text><text x="30.06" y="3.841" class="c">find</text><text x="35.07" y="3.841" class="c">.</text><text x="37.074" y="3.841" class="c">-inam</text><use xlink:href="#2" y="36.907"/><use xlink:href="#3" y="39.078"/><use xlink:href="#4" y="73.814"/></svg><svg x="4760"><use xlink:href="#a"/><use xlink:href="#b" x="42.996" y="2.146"/><use xlink:href="#6"/><use xlink:href="#10" y="2.171"/><use xlink:href="#2" y="36.907"/><use xlink:href="#3" y="39.078"/><use xlink:href="#4" y="73.814"/></svg><svg x="4900"><use xlink:href="#a"/><use xlink:href="#b" x="43.996" y="2.146"/><use xlink:href="#6"/><use xlink:href="#10" y="2.171"/><use xlink:href="#2" y="36.907"/><use xlink:href="#3" y="39.078"/><use xlink:href="#4" y="73.814"/></svg><svg x="5040"><use xlink:href="#a"/><use xlink:href="#b" x="44.996" y="2.146"/><use xlink:href="#6"/><text y="3.841" class="c">david@laptop:~/code/hishtory$</text><text x="30.06" y="3.841" class="c">find</text><text x="35.07" y="3.841" class="c">.</text><text x="37.074" y="3.841" class="c">-iname</text><text x="44.088" y="3.841" class="c">&apos;</text><use xlink:href="#2" y="36.907"/><use xlink:href="#3" y="39.078"/><use xlink:href="#4" y="73.814"/></svg><svg x="5180"><use xlink:href="#a"/><use xlink:href="#b" x="45.996" y="2.146"/><use xlink:href="#6"/><text y="3.841" class="c">david@laptop:~/code/hishtory$</text><text x="30.06" y="3.841" class="c">find</text><text x="35.07" y="3.841" class="c">.</text><text x="37.074" y="3.841" class="c">-iname</text><text x="44.088" y="3.841" class="c">&apos;*</text><use xlink:href="#2" y="36.907"/><use xlink:href="#3" y="39.078"/><use xlink:href="#4" y="73.814"/></svg><svg x="5320"><use xlink:href="#a"/><use xlink:href="#b" x="46.996" y="2.146"/><use xlink:href="#6"/><text y="3.841" class="c">david@laptop:~/code/hishtory$</text><text x="30.06" y="3.841" class="c">find</text><text x="35.07" y="3.841" class="c">.</text><text x="37.074" y="3.841" class="c">-iname</text><text x="44.088" y="3.841" class="c">&apos;*.</text><use xlink:href="#2" y="36.907"/><use xlink:href="#3" y="39.078"/><use xlink:href="#4" y="73.814"/></svg><svg x="5460"><use xlink:href="#a"/><use xlink:href="#b" x="47.996" y="2.146"/><use xlink:href="#6"/><text y="3.841" class="c">david@laptop:~/code/hishtory$</text><text x="30.06" y="3.841" class="c">find</text><text x="35.07" y="3.841" class="c">.</text><text x="37.074" y="3.841" class="c">-iname</text><text x="44.088" y="3.841" class="c">&apos;*.g</text><use xlink:href="#2" y="36.907"/><use xlink:href="#3" y="39.078"/><use xlink:href="#4" y="73.814"/></svg><svg x="5600"><use xlink:href="#a"/><use xlink:href="#b" x="48.996" y="2.146"/><use xlink:href="#6"/><text y="3.841" class="c">david@laptop:~/code/hishtory$</text><text x="30.06" y="3.841" class="c">find</text><text x="35.07" y="3.841" class="c">.</text><text x="37.074" y="3.841" class="c">-iname</text><text x="44.088" y="3.841" class="c">&apos;*.go</text><use xlink:href="#2" y="36.907"/><use xlink:href="#3" y="39.078"/><use xlink:href="#4" y="73.814"/></svg><svg x="5740"><use xlink:href="#a"/><use xlink:href="#b" x="49.996" y="2.146"/><use xlink:href="#6"/><use xlink:href="#11" y="2.171"/><use xlink:href="#2" y="36.907"/><use xlink:href="#3" y="39.078"/><use xlink:href="#4" y="73.814"/></svg><svg x="5880"><use xlink:href="#a"/><use xlink:href="#b" x="50.996" y="2.146"/><use xlink:href="#6"/><use xlink:href="#11" y="2.171"/><use xlink:href="#2" y="36.907"/><use xlink:href="#3" y="39.078"/><use xlink:href="#4" y="73.814"/></svg><svg x="6020"><use xlink:href="#a"/><use xlink:href="#b" x="51.996" y="2.146"/><use xlink:href="#6"/><use xlink:href="#12" y="2.171"/><use xlink:href="#2" y="36.907"/><use xlink:href="#3" y="39.078"/><use xlink:href="#4" y="73.814"/></svg><svg x="6160"><use xlink:href="#a"/><use xlink:href="#b" x="52.996" y="2.146"/><use xlink:href="#6"/><use xlink:href="#12" y="2.171"/><use xlink:href="#2" y="36.907"/><use xlink:href="#3" y="39.078"/><use xlink:href="#4" y="73.814"/></svg><svg x="6300"><use xlink:href="#a"/><use xlink:href="#b" x="53.996" y="2.146"/><use xlink:href="#6"/><text y="3.841" class="c">david@laptop:~/code/hishtory$</text><text x="30.06" y="3.841" class="c">find</text><text x="35.07" y="3.841" class="c">.</text><text x="37.074" y="3.841" class="c">-iname</text><text x="44.088" y="3.841" class="c">&apos;*.go&apos;</text><text x="51.102" y="3.841" class="c">|</text><text x="53.106" y="3.841" class="c">x</text><use xlink:href="#2" y="36.907"/><use xlink:href="#3" y="39.078"/><use xlink:href="#4" y="73.814"/></svg><svg x="6440"><use xlink:href="#a"/><use xlink:href="#b" x="54.996" y="2.146"/><use xlink:href="#6"/><text y="3.841" class="c">david@laptop:~/code/hishtory$</text><text x="30.06" y="3.841" class="c">find</text><text x="35.07" y="3.841" class="c">.</text><text x="37.074" y="3.841" class="c">-iname</text><text x="44.088" y="3.841" class="c">&apos;*.go&apos;</text><text x="51.102" y="3.841" class="c">|</text><text x="53.106" y="3.841" class="c">xa</text><use xlink:href="#2" y="36.907"/><use xlink:href="#3" y="39.078"/><use xlink:href="#4" y="73.814"/></svg><svg x="6580"><use xlink:href="#a"/><use xlink:href="#b" x="55.996" y="2.146"/><use xlink:href="#6"/><text y="3.841" class="c">david@laptop:~/code/hishtory$</text><text x="30.06" y="3.841" class="c">find</text><text x="35.07" y="3.841" class="c">.</text><text x="37.074" y="3.841" class="c">-iname</text><text x="44.088" y="3.841" class="c">&apos;*.go&apos;</text><text x="51.102" y="3.841" class="c">|</text><text x="53.106" y="3.841" class="c">xar</text><use xlink:href="#2" y="36.907"/><use xlink:href="#3" y="39.078"/><use xlink:href="#4" y="73.814"/></svg><svg x="6720"><use xlink:href="#a"/><use xlink:href="#b" x="56.996" y="2.146"/><use xlink:href="#6"/><text y="3.841" class="c">david@laptop:~/code/hishtory$</text><text x="30.06" y="3.841" class="c">find</text><text x="35.07" y="3.841" class="c">.</text><text x="37.074" y="3.841" class="c">-iname</text><text x="44.088" y="3.841" class="c">&apos;*.go&apos;</text><text x="51.102" y="3.841" class="c">|</text><text x="53.106" y="3.841" class="c">xarg</text><use xlink:href="#2" y="36.907"/><use xlink:href="#3" y="39.078"/><use xlink:href="#4" y="73.814"/></svg><svg x="6860"><use xlink:href="#a"/><use xlink:href="#b" x="57.996" y="2.146"/><use xlink:href="#6"/><use xlink:href="#13" y="2.171"/><use xlink:href="#2" y="36.907"/><use xlink:href="#3" y="39.078"/><use xlink:href="#4" y="73.814"/></svg><svg x="7000"><use xlink:href="#a"/><use xlink:href="#b" x="58.996" y="2.146"/><use xlink:href="#6"/><use xlink:href="#13" y="2.171"/><use xlink:href="#2" y="36.907"/><use xlink:href="#3" y="39.078"/><use xlink:href="#4" y="73.814"/></svg><svg x="7140"><use xlink:href="#a"/><use xlink:href="#b" x="59.996" y="2.146"/><use xlink:href="#6"/><text y="3.841" class="c">david@laptop:~/code/hishtory$</text><text x="30.06" y="3.841" class="c">find</text><text x="35.07" y="3.841" class="c">.</text><text x="37.074" y="3.841" class="c">-iname</text><text x="44.088" y="3.841" class="c">&apos;*.go&apos;</text><text x="51.102" y="3.841" class="c">|</text><text x="53.106" y="3.841" class="c">xargs</text><text x="59.118" y="3.841" class="c">-</text><use xlink:href="#2" y="36.907"/><use xlink:href="#3" y="39.078"/><use xlink:href="#4" y="73.814"/></svg><svg x="7280"><use xlink:href="#a"/><use xlink:href="#b" x="60.996" y="2.146"/><use xlink:href="#6"/><use xlink:href="#14" y="2.171"/><use xlink:href="#2" y="36.907"/><use xlink:href="#3" y="39.078"/><use xlink:href="#4" y="73.814"/></svg><svg x="7420"><use xlink:href="#a"/><use xlink:href="#b" x="61.996" y="2.146"/><use xlink:href="#6"/><use xlink:href="#14" y="2.171"/><use xlink:href="#2" y="36.907"/><use xlink:href="#3" y="39.078"/><use xlink:href="#4" y="73.814"/></svg><svg x="7560"><use xlink:href="#a"/><use xlink:href="#b" x="62.996" y="2.146"/><use xlink:href="#6"/><text y="3.841" class="c">david@laptop:~/code/hishtory$</text><text x="30.06" y="3.841" class="c">find</text><text x="35.07" y="3.841" class="c">.</text><text x="37.074" y="3.841" class="c">-iname</text><text x="44.088" y="3.841" class="c">&apos;*.go&apos;</text><text x="51.102" y="3.841" class="c">|</text><text x="53.106" y="3.841" class="c">xargs</text><text x="59.118" y="3.841" class="c">-I</text><text x="62.124" y="3.841" class="c">{</text><use xlink:href="#2" y="36.907"/><use xlink:href="#3" y="39.078"/><use xlink:href="#4" y="73.814"/></svg><svg x="7700"><use xlink:href="#a"/><use xlink:href="#b" x="63.996" y="2.146"/><use xlink:href="#6"/><use xlink:href="#15" y="2.171"/><use xlink:href="#2" y="36.907"/><use xlink:href="#3" y="39.078"/><use xlink:href="#4" y="73.814"/></svg><svg x="7840"><use xlink:href="#a"/><use xlink:href="#b" x="64.996" y="2.146"/><use xlink:href="#6"/><use xlink:href="#15" y="2.171"/><use xlink:href="#2" y="36.907"/><use xlink:href="#3" y="39.078"/><use xlink:href="#4" y="73.814"/></svg><svg x="7980"><use xlink:href="#a"/><use xlink:href="#b" x="65.996" y="2.146"/><use xlink:href="#6"/><text y="3.841" class="c">david@laptop:~/code/hishtory$</text><text x="30.06" y="3.841" class="c">find</text><text x="35.07" y="3.841" class="c">.</text><text x="37.074" y="3.841" class="c">-iname</text><text x="44.088" y="3.841" class="c">&apos;*.go&apos;</text><text x="51.102" y="3.841" class="c">|</text><text x="53.106" y="3.841" class="c">xargs</text><text x="59.118" y="3.841" class="c">-I</text><text x="62.124" y="3.841" class="c">{}</text><text x="65.13" y="3.841" class="c">-</text><use xlink:href="#2" y="36.907"/><use xlink:href="#3" y="39.078"/><use xlink:href="#4" y="73.814"/></svg><svg x="8120"><use xlink:href="#a"/><use xlink:href="#b" x="66.996" y="2.146"/><use xlink:href="#6"/><use xlink:href="#16" y="2.171"/><use xlink:href="#2" y="36.907"/><use xlink:href="#3" y="39.078"/><use xlink:href="#4" y="73.814"/></svg><svg x="8260"><use xlink:href="#a"/><use xlink:href="#b" x="67.996" y="2.146"/><use xlink:href="#6"/><use xlink:href="#16" y="2.171"/><use xlink:href="#2" y="36.907"/><use xlink:href="#3" y="39.078"/><use xlink:href="#4" y="73.814"/></svg><svg x="8400"><use xlink:href="#a"/><use xlink:href="#b" x="68.996" y="2.146"/><use xlink:href="#6"/><text y="3.841" class="c">david@laptop:~/code/hishtory$</text><text x="30.06" y="3.841" class="c">find</text><text x="35.07" y="3.841" class="c">.</text><text x="37.074" y="3.841" class="c">-iname</text><text x="44.088" y="3.841" class="c">&apos;*.go&apos;</text><text x="51.102" y="3.841" class="c">|</text><text x="53.106" y="3.841" class="c">xargs</text><text x="59.118" y="3.841" class="c">-I</text><text x="62.124" y="3.841" class="c">{}</text><text x="65.13" y="3.841" class="c">--</text><text x="68.136" y="3.841" class="c">g</text><use xlink:href="#2" y="36.907"/><use xlink:href="#3" y="39.078"/><use xlink:href="#4" y="73.814"/></svg><svg x="8540"><use xlink:href="#a"/><use xlink:href="#b" x="69.996" y="2.146"/><use xlink:href="#6"/><text y="3.841" class="c">david@laptop:~/code/hishtory$</text><text x="30.06" y="3.841" class="c">find</text><text x="35.07" y="3.841" class="c">.</text><text x="37.074" y="3.841" class="c">-iname</text><text x="44.088" y="3.841" class="c">&apos;*.go&apos;</text><text x="51.102" y="3.841" class="c">|</text><text x="53.106" y="3.841" class="c">xargs</text><text x="59.118" y="3.841" class="c">-I</text><text x="62.124" y="3.841" class="c">{}</text><text x="65.13" y="3.841" class="c">--</text><text x="68.136" y="3.841" class="c">go</text><use xlink:href="#2" y="36.907"/><use xlink:href="#3" y="39.078"/><use xlink:href="#4" y="73.814"/></svg><svg x="8680"><use xlink:href="#a"/><use xlink:href="#b" x="70.996" y="2.146"/><use xlink:href="#6"/><text y="3.841" class="c">david@laptop:~/code/hishtory$</text><text x="30.06" y="3.841" class="c">find</text><text x="35.07" y="3.841" class="c">.</text><text x="37.074" y="3.841" class="c">-iname</text><text x="44.088" y="3.841" class="c">&apos;*.go&apos;</text><text x="51.102" y="3.841" class="c">|</text><text x="53.106" y="3.841" class="c">xargs</text><text x="59.118" y="3.841" class="c">-I</text><text x="62.124" y="3.841" class="c">{}</text><text x="65.13" y="3.841" class="c">--</text><text x="68.136" y="3.841" class="c">gof</text><use xlink:href="#2" y="36.907"/><use xlink:href="#3" y="39.078"/><use xlink:href="#4" y="73.814"/></svg><svg x="8820"><use xlink:href="#a"/><use xlink:href="#b" x="71.996" y="2.146"/><use xlink:href="#6"/><text y="3.841" class="c">david@laptop:~/code/hishtory$</text><text x="30.06" y="3.841" class="c">find</text><text x="35.07" y="3.841" class="c">.</text><text x="37.074" y="3.841" class="c">-iname</text><text x="44.088" y="3.841" class="c">&apos;*.go&apos;</text><text x="51.102" y="3.841" class="c">|</text><text x="53.106" y="3.841" class="c">xargs</text><text x="59.118" y="3.841" class="c">-I</text><text x="62.124" y="3.841" class="c">{}</text><text x="65.13" y="3.841" class="c">--</text><text x="68.136" y="3.841" class="c">gofm</text><use xlink:href="#2" y="36.907"/><use xlink:href="#3" y="39.078"/><use xlink:href="#4" y="73.814"/></svg><svg x="8960"><use xlink:href="#a"/><use xlink:href="#b" x="72.996" y="2.146"/><use xlink:href="#6"/><use xlink:href="#17" y="2.171"/><use xlink:href="#2" y="36.907"/><use xlink:href="#3" y="39.078"/><use xlink:href="#4" y="73.814"/></svg><svg x="9100"><use xlink:href="#a"/><use xlink:href="#b" x="73.996" y="2.146"/><use xlink:href="#6"/><use xlink:href="#17" y="2.171"/><use xlink:href="#2" y="36.907"/><use xlink:href="#3" y="39.078"/><use xlink:href="#4" y="73.814"/></svg><svg x="9240"><use xlink:href="#a"/><use xlink:href="#b" x="74.996" y="2.146"/><use xlink:href="#6"/><text y="3.841" class="c">david@laptop:~/code/hishtory$</text><text x="30.06" y="3.841" class="c">find</text><text x="35.07" y="3.841" class="c">.</text><text x="37.074" y="3.841" class="c">-iname</text><text x="44.088" y="3.841" class="c">&apos;*.go&apos;</text><text x="51.102" y="3.841" class="c">|</text><text x="53.106" y="3.841" class="c">xargs</text><text x="59.118" y="3.841" class="c">-I</text><text x="62.124" y="3.841" class="c">{}</text><text x="65.13" y="3.841" class="c">--</text><text x="68.136" y="3.841" class="c">gofmt</text><text x="74.148" y="3.841" class="c">-</text><use xlink:href="#2" y="36.907"/><use xlink:href="#3" y="39.078"/><use xlink:href="#4" y="73.814"/></svg><svg x="9380"><use xlink:href="#a"/><use xlink:href="#b" x="75.996" y="2.146"/><use xlink:href="#6"/><use xlink:href="#18" y="2.171"/><use xlink:href="#2" y="36.907"/><use xlink:href="#3" y="39.078"/><use xlink:href="#4" y="73.814"/></svg><svg x="9520"><use xlink:href="#a"/><use xlink:href="#b" x="76.996" y="2.146"/><use xlink:href="#6"/><use xlink:href="#18" y="2.171"/><use xlink:href="#2" y="36.907"/><use xlink:href="#3" y="39.078"/><use xlink:href="#4" y="73.814"/></svg><svg x="9660"><use xlink:href="#a"/><use xlink:href="#b" x="77.996" y="2.146"/><use xlink:href="#6"/><text y="3.841" class="c">david@laptop:~/code/hishtory$</text><text x="30.06" y="3.841" class="c">find</text><text x="35.07" y="3.841" class="c">.</text><text x="37.074" y="3.841" class="c">-iname</text><text x="44.088" y="3.841" class="c">&apos;*.go&apos;</text><text x="51.102" y="3.841" class="c">|</text><text x="53.106" y="3.841" class="c">xargs</text><text x="59.118" y="3.841" class="c">-I</text><text x="62.124" y="3.841" class="c">{}</text><text x="65.13" y="3.841" class="c">--</text><text x="68.136" y="3.841" class="c">gofmt</text><text x="74.148" y="3.841" class="c">-w</text><text x="77.154" y="3.841" class="c">{</text><use xlink:href="#2" y="36.907"/><use xlink:href="#3" y="39.078"/><use xlink:href="#4" y="73.814"/></svg><svg x="9800"><use xlink:href="#a"/><use xlink:href="#b" x="78.996" y="2.146"/><use xlink:href="#6"/><use xlink:href="#19" y="2.171"/><use xlink:href="#2" y="36.907"/><use xlink:href="#3" y="39.078"/><use xlink:href="#4" y="73.814"/></svg><svg x="9940"><use xlink:href="#a"/><use xlink:href="#b" x="-.004" y="4.317"/><use xlink:href="#6"/><use xlink:href="#19" y="2.171"/><use xlink:href="#2" y="36.907"/><use xlink:href="#3" y="39.078"/><use xlink:href="#4" y="73.814"/></svg><svg x="10080"><use xlink:href="#a"/><use xlink:href="#b" x="29.996" y="4.317"/><use xlink:href="#6"/><use xlink:href="#19" y="2.171"/><use xlink:href="#7" y="4.342"/><use xlink:href="#2" y="36.907"/><use xlink:href="#3" y="39.078"/><use xlink:href="#4" y="73.814"/></svg><svg x="10220"><use xlink:href="#a"/><use xlink:href="#b" x="15.996" y="39.053"/><use xlink:href="#6"/><use xlink:href="#19" y="2.171"/><use xlink:href="#7" y="4.342"/><use xlink:href="#20" y="36.907"/><use xlink:href="#3" y="39.078"/><use xlink:href="#21" y="73.814"/></svg><svg x="10360"><use xlink:href="#a"/><use xlink:href="#b" x="16.996" y="39.053"/><use xlink:href="#6"/><use xlink:href="#19" y="2.171"/><use xlink:href="#7" y="4.342"/><use xlink:href="#20" y="36.907"/><text y="40.748" class="c">david@server:~$</text><text x="16.032" y="40.748" class="c">h</text><use xlink:href="#21" y="73.814"/></svg><svg x="10500"><use xlink:href="#a"/><use xlink:href="#b" x="17.996" y="39.053"/><use xlink:href="#6"/><use xlink:href="#19" y="2.171"/><use xlink:href="#7" y="4.342"/><use xlink:href="#20" y="36.907"/><text y="40.748" class="c">david@server:~$</text><text x="16.032" y="40.748" class="c">hi</text><use xlink:href="#21" y="73.814"/></svg><svg x="10640"><use xlink:href="#a"/><use xlink:href="#b" x="18.996" y="39.053"/><use xlink:href="#6"/><use xlink:href="#19" y="2.171"/><use xlink:href="#7" y="4.342"/><use xlink:href="#20" y="36.907"/><text y="40.748" class="c">david@server:~$</text><text x="16.032" y="40.748" class="c">his</text><use xlink:href="#21" y="73.814"/></svg><svg x="10780"><use xlink:href="#a"/><use xlink:href="#b" x="19.996" y="39.053"/><use xlink:href="#6"/><use xlink:href="#19" y="2.171"/><use xlink:href="#7" y="4.342"/><use xlink:href="#20" y="36.907"/><text y="40.748" class="c">david@server:~$</text><text x="16.032" y="40.748" class="c">hish</text><use xlink:href="#21" y="73.814"/></svg><svg x="10920"><use xlink:href="#a"/><use xlink:href="#b" x="20.996" y="39.053"/><use xlink:href="#6"/><use xlink:href="#19" y="2.171"/><use xlink:href="#7" y="4.342"/><use xlink:href="#20" y="36.907"/><text y="40.748" class="c">david@server:~$</text><text x="16.032" y="40.748" class="c">hisht</text><use xlink:href="#21" y="73.814"/></svg><svg x="11060"><use xlink:href="#a"/><use xlink:href="#b" x="21.996" y="39.053"/><use xlink:href="#6"/><use xlink:href="#19" y="2.171"/><use xlink:href="#7" y="4.342"/><use xlink:href="#20" y="36.907"/><text y="40.748" class="c">david@server:~$</text><text x="16.032" y="40.748" class="c">hishto</text><use xlink:href="#21" y="73.814"/></svg><svg x="11200"><use xlink:href="#a"/><use xlink:href="#b" x="22.996" y="39.053"/><use xlink:href="#6"/><use xlink:href="#19" y="2.171"/><use xlink:href="#7" y="4.342"/><use xlink:href="#20" y="36.907"/><text y="40.748" class="c">david@server:~$</text><text x="16.032" y="40.748" class="c">hishtor</text><use xlink:href="#21" y="73.814"/></svg><svg x="11340"><use xlink:href="#a"/><use xlink:href="#b" x="23.996" y="39.053"/><use xlink:href="#6"/><use xlink:href="#19" y="2.171"/><use xlink:href="#7" y="4.342"/><use xlink:href="#20" y="36.907"/><use xlink:href="#22" y="39.078"/><use xlink:href="#21" y="73.814"/></svg><svg x="11480"><use xlink:href="#a"/><use xlink:href="#b" x="24.996" y="39.053"/><use xlink:href="#6"/><use xlink:href="#19" y="2.171"/><use xlink:href="#7" y="4.342"/><use xlink:href="#20" y="36.907"/><use xlink:href="#22" y="39.078"/><use xlink:href="#21" y="73.814"/></svg><svg x="11620"><use xlink:href="#a"/><use xlink:href="#b" x="25.996" y="39.053"/><use xlink:href="#6"/><use xlink:href="#19" y="2.171"/><use xlink:href="#7" y="4.342"/><use xlink:href="#20" y="36.907"/><text y="40.748" class="c">david@server:~$</text><text x="16.032" y="40.748" class="c">hishtory</text><text x="25.05" y="40.748" class="c">q</text><use xlink:href="#21" y="73.814"/></svg><svg x="11760"><use xlink:href="#a"/><use xlink:href="#b" x="26.996" y="39.053"/><use xlink:href="#6"/><use xlink:href="#19" y="2.171"/><use xlink:href="#7" y="4.342"/><use xlink:href="#20" y="36.907"/><text y="40.748" class="c">david@server:~$</text><text x="16.032" y="40.748" class="c">hishtory</text><text x="25.05" y="40.748" class="c">qu</text><use xlink:href="#21" y="73.814"/></svg><svg x="11900"><use xlink:href="#a"/><use xlink:href="#b" x="27.996" y="39.053"/><use xlink:href="#6"/><use xlink:href="#19" y="2.171"/><use xlink:href="#7" y="4.342"/><use xlink:href="#20" y="36.907"/><text y="40.748" class="c">david@server:~$</text><text x="16.032" y="40.748" class="c">hishtory</text><text x="25.05" y="40.748" class="c">que</text><use xlink:href="#21" y="73.814"/></svg><svg x="12040"><use xlink:href="#a"/><use xlink:href="#b" x="28.996" y="39.053"/><use xlink:href="#6"/><use xlink:href="#19" y="2.171"/><use xlink:href="#7" y="4.342"/><use xlink:href="#20" y="36.907"/><text y="40.748" class="c">david@server:~$</text><text x="16.032" y="40.748" class="c">hishtory</text><text x="25.05" y="40.748" class="c">quer</text><use xlink:href="#21" y="73.814"/></svg><svg x="12180"><use xlink:href="#a"/><use xlink:href="#b" x="29.996" y="39.053"/><use xlink:href="#6"/><use xlink:href="#19" y="2.171"/><use xlink:href="#7" y="4.342"/><use xlink:href="#20" y="36.907"/><use xlink:href="#23" y="39.078"/><use xlink:href="#21" y="73.814"/></svg><svg x="12320"><use xlink:href="#a"/><use xlink:href="#b" x="-.004" y="41.224"/><use xlink:href="#6"/><use xlink:href="#19" y="2.171"/><use xlink:href="#7" y="4.342"/><use xlink:href="#20" y="36.907"/><use xlink:href="#23" y="39.078"/><use xlink:href="#21" y="73.814"/></svg><svg x="12460"><use xlink:href="#a"/><use xlink:href="#b" x="-.004" y="49.908"/><use xlink:href="#6"/><use xlink:href="#19" y="2.171"/><use xlink:href="#7" y="4.342"/><use xlink:href="#20" y="36.907"/><use xlink:href="#23" y="39.078"/><use xlink:href="#24" y="41.249"/><use xlink:href="#25" y="43.42"/><use xlink:href="#26" y="45.591"/><use xlink:href="#27" y="47.762"/><use xlink:href="#21" y="73.814"/></svg><svg x="12600"><use xlink:href="#a"/><use xlink:href="#b" x="15.996" y="49.908"/><use xlink:href="#6"/><use xlink:href="#19" y="2.171"/><use xlink:href="#7" y="4.342"/><use xlink:href="#20" y="36.907"/><use xlink:href="#23" y="39.078"/><use xlink:href="#24" y="41.249"/><use xlink:href="#25" y="43.42"/><use xlink:href="#26" y="45.591"/><use xlink:href="#27" y="47.762"/><use xlink:href="#3" y="49.933"/><use xlink:href="#21" y="73.814"/></svg><svg x="12740"><use xlink:href="#a"/><use xlink:href="#b" x="-.004" y="52.079"/><use xlink:href="#6"/><use xlink:href="#19" y="2.171"/><use xlink:href="#7" y="4.342"/><use xlink:href="#20" y="36.907"/><use xlink:href="#23" y="39.078"/><use xlink:href="#24" y="41.249"/><use xlink:href="#25" y="43.42"/><use xlink:href="#26" y="45.591"/><use xlink:href="#27" y="47.762"/><text y="51.603" class="c">david@server:~$</text><text x="16.032" y="51.603" class="c">logout</text><use xlink:href="#21" y="73.814"/></svg><svg x="12880"><use xlink:href="#a"/><use xlink:href="#b" x="29.996" y="4.317"/><use xlink:href="#6"/><use xlink:href="#19" y="2.171"/><use xlink:href="#7" y="4.342"/><use xlink:href="#4" y="73.814"/></svg><svg x="13020"><use xlink:href="#a"/><use xlink:href="#b" x="29.996" y="4.317"/><use xlink:href="#6"/><use xlink:href="#19" y="2.171"/><use xlink:href="#7" y="4.342"/><use xlink:href="#4" y="73.814"/></svg><svg x="13160"><use xlink:href="#a"/><use xlink:href="#b" x="-.004" y="6.488"/><use xlink:href="#6"/><use xlink:href="#19" y="2.171"/><text y="6.012" class="c">david@laptop:~/code/hishtory$</text><text x="30.06" y="6.012" class="c">logout</text><use xlink:href="#4" y="73.814"/></svg><svg x="13300"><use xlink:href="#a"/><use xlink:href="#b" x="-.004"/></svg><svg x="13440"><use xlink:href="#a"/><use xlink:href="#b" x="-.004" y="2.146"/><text y="1.67" class="c">[exited]</text></svg></svg></g></g></svg></svg>